<?xml version="1.0" encoding="iso-8859-1"?>
<!-- Generator: Adobe Illustrator 19.0.0, SVG Export Plug-In . SVG Version: 6.00 Build 0)  -->
<svg version="1.1" id="Capa_1" xmlns="http://www.w3.org/2000/svg" xmlns:xlink="http://www.w3.org/1999/xlink" x="0px" y="0px"
	 viewBox="0 0 512 512" style="enable-background:new 0 0 512 512;" xml:space="preserve">
<polygon style="fill:#917464;" points="8.031,490.8 8.031,204.561 203.9,204.561 251.963,280.833 214.009,324.978 277.436,420.738 
	262.402,335.846 309.59,274.322 280.777,204.561 503.969,204.561 503.969,490.8 "/>
<path d="M10.039,498.832h491.922c5.545,0,10.039-4.495,10.039-10.039V206.57c0-5.545-4.495-10.039-10.039-10.039H283.903
	c-0.035,0-0.07,0-0.105,0h-0.019c-0.027,0-0.053,0.004-0.08,0.004c-0.302,0.002-0.604,0.016-0.908,0.046
	c-0.113,0.011-0.224,0.032-0.336,0.047c-0.211,0.028-0.421,0.054-0.63,0.096c-0.199,0.039-0.393,0.093-0.587,0.144
	c-0.12,0.032-0.241,0.056-0.361,0.092c-0.284,0.085-0.561,0.187-0.834,0.296c-0.031,0.013-0.063,0.021-0.094,0.033
	c-0.003,0.001-0.006,0.003-0.009,0.004c-0.601,0.25-1.174,0.555-1.71,0.913c-0.547,0.362-1.049,0.773-1.505,1.224
	c-0.015,0.014-0.031,0.027-0.045,0.041c-0.177,0.177-0.339,0.363-0.502,0.552c-0.05,0.059-0.106,0.113-0.156,0.174
	c-0.12,0.148-0.23,0.303-0.341,0.457c-0.081,0.111-0.168,0.219-0.245,0.334c-0.071,0.106-0.133,0.22-0.2,0.329
	c-0.104,0.171-0.212,0.339-0.307,0.516c-0.031,0.058-0.056,0.12-0.086,0.18c-0.118,0.231-0.233,0.464-0.333,0.705
	c-0.002,0.005-0.003,0.01-0.005,0.014c-0.255,0.616-0.449,1.265-0.578,1.937c-0.056,0.289-0.103,0.58-0.134,0.874
	c0,0.004,0,0.008-0.001,0.012c-0.034,0.332-0.05,0.668-0.051,1.005c0,0.004-0.001,0.007-0.001,0.011c0,0.036,0.005,0.07,0.005,0.105
	c0.003,0.293,0.015,0.586,0.044,0.88c0.012,0.119,0.034,0.235,0.05,0.353c0.028,0.205,0.053,0.41,0.093,0.614
	c0.04,0.204,0.095,0.403,0.148,0.601c0.03,0.115,0.054,0.232,0.089,0.346c0.086,0.285,0.188,0.563,0.297,0.837
	c0.012,0.031,0.02,0.062,0.033,0.093l0.009,0.021c0.013,0.03,0.025,0.061,0.037,0.091l25.854,62.594l-43.832,57.148
	c-1.714,2.235-2.41,5.087-1.919,7.861l8.139,45.962l-38.728-58.47l33.027-38.414c2.874-3.343,3.232-8.168,0.881-11.897
	l-46.682-74.079c-0.024-0.039-0.053-0.072-0.078-0.11c-0.105-0.162-0.218-0.317-0.331-0.472c-0.087-0.119-0.174-0.241-0.266-0.355
	c-0.1-0.124-0.208-0.242-0.313-0.361c-0.116-0.132-0.231-0.265-0.353-0.39c-0.091-0.093-0.19-0.18-0.285-0.269
	c-0.144-0.135-0.286-0.271-0.436-0.397c-0.095-0.079-0.197-0.152-0.295-0.228c-0.156-0.12-0.309-0.242-0.471-0.352
	c-0.124-0.085-0.255-0.161-0.383-0.24c-0.142-0.087-0.281-0.179-0.426-0.259c-0.17-0.093-0.345-0.176-0.52-0.259
	c-0.111-0.053-0.22-0.111-0.333-0.161c-0.201-0.087-0.408-0.162-0.614-0.236c-0.095-0.034-0.189-0.073-0.285-0.104
	c-0.203-0.066-0.411-0.118-0.619-0.172c-0.109-0.028-0.218-0.06-0.329-0.084c-0.183-0.04-0.369-0.068-0.556-0.098
	c-0.146-0.023-0.289-0.049-0.436-0.066c-0.156-0.018-0.314-0.027-0.472-0.038c-0.183-0.013-0.364-0.025-0.548-0.028
	c-0.048-0.001-0.094-0.007-0.143-0.007H10.039C4.495,196.531,0,201.025,0,206.57v282.222C0,494.337,4.495,498.832,10.039,498.832z
	 M20.078,216.608h177.173l39.775,63.119l-33.143,38.549c-2.928,3.406-3.239,8.344-0.757,12.089l69.602,105.081
	c1.904,2.876,5.084,4.497,8.373,4.497c1.246,0,2.508-0.233,3.722-0.718c4.417-1.765,6.99-6.389,6.16-11.073l-15.794-89.183
	l44.664-58.233c2.18-2.843,2.68-6.631,1.313-9.942l-22.38-54.185h193.135v262.144H20.078V216.608z"/>
<path d="M191.085,141.645c-3.92,3.92-3.92,10.277,0,14.197c3.92,3.92,10.277,3.92,14.197,0
	c10.548-10.549,29.508-16.847,50.717-16.847s40.168,6.298,50.717,16.847c1.961,1.961,4.53,2.94,7.099,2.94
	c2.569,0,5.139-0.981,7.099-2.94c3.92-3.92,3.921-10.277,0-14.197c-14.232-14.232-38.498-22.729-64.915-22.729
	C229.584,118.917,205.317,127.414,191.085,141.645z"/>
<path d="M350.278,122.331c2.569,0,5.138-0.98,7.098-2.939c3.921-3.92,3.921-10.276,0.001-14.197
	C333.335,81.145,296.385,67.353,256,67.353s-77.335,13.792-101.378,37.84c-3.92,3.921-3.919,10.277,0.001,14.197
	c3.921,3.92,10.278,3.92,14.197-0.001C189.127,99.08,220.902,87.432,256,87.432s66.873,11.648,87.179,31.958
	C345.139,121.35,347.708,122.331,350.278,122.331z"/>
<path d="M388.588,84.011c2.569,0,5.139-0.981,7.099-2.94c3.92-3.92,3.92-10.277,0-14.197C361.557,32.743,310.643,13.168,256,13.168
	S150.443,32.743,116.313,66.873c-3.92,3.92-3.92,10.277,0,14.197c3.92,3.92,10.277,3.92,14.198,0
	C160.903,50.678,206.642,33.247,256,33.247s95.098,17.431,125.489,47.823C383.45,83.031,386.018,84.011,388.588,84.011z"/>
<path d="M144.85,425.666H58.846c-5.545,0-10.039,4.495-10.039,10.039s4.495,10.039,10.039,10.039h86.003
	c5.545,0,10.039-4.495,10.039-10.039S150.395,425.666,144.85,425.666z"/>
<path d="M176.584,425.666c-12.919,0-12.941,20.078,0,20.078C189.503,445.744,189.525,425.666,176.584,425.666z"/>
<g>
</g>
<g>
</g>
<g>
</g>
<g>
</g>
<g>
</g>
<g>
</g>
<g>
</g>
<g>
</g>
<g>
</g>
<g>
</g>
<g>
</g>
<g>
</g>
<g>
</g>
<g>
</g>
<g>
</g>
</svg>
