<svg height="456pt" viewBox="-57 0 456 456" width="456pt" xmlns="http://www.w3.org/2000/svg"><path d="m173.289062 448h-90.578124c-6.570313-.003906-12.578126-3.71875-15.511719-9.601562-2.054688-4.109376-2.390625-8.871094-.933594-13.230469l.511719-1.535157c3.390625-10.199218 3.597656-21.1875.589844-31.503906l-1.992188-6.816406h126.625l-1.96875 5.597656c-3.910156 11.078125-4.015625 23.140625-.304688 34.28125 1.453126 4.351563 1.121094 9.101563-.925781 13.207032-2.933593 5.882812-8.941406 9.597656-15.511719 9.601562zm0 0" fill="#55785f"/><path d="m245.601562 199.679688c1.574219 8.011718 2.375 16.15625 2.398438 24.320312v72c.011719 43-23.003906 82.710938-60.320312 104.078125-36.699219 21.085937-81.800782 21.234375-118.640626.402344-37.734374-21.238281-61.070312-61.183594-61.039062-104.480469v-72c.003906-44.515625 24.636719-85.375 64-106.160156 4.179688-2.1875 8.480469-4.140625 12.878906-5.839844 13.753906-5.324219 28.375-8.035156 43.121094-8 .878906 0 1.839844 0 2.71875.078125 3.023438.027344 6.039062.214844 9.042969.5625 3.039062.238281 6 .640625 8.957031 1.121094 5.859375 1.050781 11.632812 2.519531 17.28125 4.398437 2.800781.960938 5.601562 2 8.398438 3.121094 3.28125 1.4375 6.480468 2.957031 9.601562 4.558594 20.738281 11.097656 37.84375 27.925781 49.28125 48.480468zm0 0" fill="#61896c"/><path d="m120 320h16v16h-16zm0 0" fill="#55785f"/><path d="m152 320h16v16h-16zm0 0" fill="#55785f"/><path d="m164.921875 264h-73.84375c-28.457031 0-56.65625-5.429688-83.078125-16v32c26.421875 10.570312 54.621094 16 83.078125 16h73.84375c28.457031 0 56.65625-5.429688 83.078125-16v-32c-26.421875 10.570312-54.621094 16-83.078125 16zm0 0" fill="#cdcdcd"/><path d="m72 8h112v112h-112zm0 0" fill="#55785f"/><path d="m200 72c-39.765625 0-72 32.234375-72 72s32.234375 72 72 72 72-32.234375 72-72-32.234375-72-72-72zm0 112c-22.089844 0-40-17.910156-40-40s17.910156-40 40-40 40 17.910156 40 40-17.910156 40-40 40zm0 0" fill="#d9d9d9"/><path d="m184 56-24-16h-96v-32h120zm0 0" fill="#61896c"/><path d="m184 320h16v16h-16zm0 0" fill="#55785f"/><path d="m184 8h80v32h-80zm0 0" fill="#55785f"/><path d="m256 8h25.9375c16.894531 0 30.878906 13.136719 31.933594 30l21.039062 336.542969c.28125 4.527343-1.320312 8.972656-4.429687 12.277343-3.105469 3.304688-7.441407 5.179688-11.976563 5.179688-8.289062 0-15.277344-6.175781-16.304687-14.398438zm0 0" fill="#61896c"/><path d="m120 320h16v16h-16zm0 0"/><path d="m152 320h16v16h-16zm0 0"/><path d="m184 320h16v16h-16zm0 0"/><path d="m200 96c-26.507812 0-48 21.492188-48 48s21.492188 48 48 48 48-21.492188 48-48c-.027344-26.5-21.5-47.972656-48-48zm32 48c-.042969 1.609375-.207031 3.214844-.488281 4.800781-3.957031-5.421875-8.324219-10.53125-13.054688-15.289062-7.910156-7.863281-16.804687-14.671875-26.457031-20.253907v-.121093c2.605469-.722657 5.296875-1.101563 8-1.136719 17.671875 0 32 14.328125 32 32zm-32 32c-17.671875 0-32-14.328125-32-32 .03125-5.632812 1.570312-11.15625 4.449219-16h11.550781c.390625-.046875.78125-.125 1.160156-.230469 15.644532 9.308594 28.800782 22.273438 38.335938 37.78125-6.011719 6.636719-14.542969 10.429688-23.496094 10.449219zm0 0"/><path d="m321.855469 37.503906c-1.347657-21.066406-18.8125-37.472656-39.917969-37.503906h-217.9375c-4.417969 0-8 3.582031-8 8v32c0 4.417969 3.582031 8 8 8v65.214844c-39.613281 22.820312-64.0195312 65.066406-64 110.785156v72c.203125 45.664062 24.546875 87.816406 64 110.808594l-5.335938 15.960937c-.828124 2.539063-1.253906 5.195313-1.265624 7.871094.027343 13.980469 11.34375 25.3125 25.320312 25.359375h90.5625c8.140625-.007812 15.78125-3.917969 20.546875-10.519531 4.765625-6.601563 6.074219-15.085938 3.515625-22.816407l-5.34375-15.863281c39.453125-22.988281 63.800781-65.136719 64-110.800781v-72c-.066406-7.125-.695312-14.238281-1.878906-21.265625 6.238281-5.722656 11.535156-12.402344 15.6875-19.78125l24.457031 195.632813c1.667969 13.0625 13.394531 22.453124 26.507813 21.226562 13.113281-1.226562 22.894531-12.625 22.113281-25.773438zm-129.855469-21.503906h56.9375l2 16h-58.9375zm-120 0h104v25.054688l-11.558594-7.710938c-1.316406-.875-2.863281-1.339844-4.441406-1.34375h-88zm85.601562 32 18.398438 12.28125v7.40625c-22.03125 7-39.984375 23.144531-49.273438 44.3125h-46.726562v-64zm82.398438 226.511719c-24.019531 8.941406-49.449219 13.511719-75.078125 13.488281h-73.84375c-25.628906.023438-51.058594-4.546875-75.078125-13.488281v-15.007813c24.160156 8.296875 49.535156 12.519532 75.078125 12.496094h73.84375c25.542969.023438 50.917969-4.199219 75.078125-12.496094zm-58.398438 160.320312c-1.570312 3.160157-4.792968 5.164063-8.320312 5.167969h-90.5625c-5.164062-.011719-9.34375-4.195312-9.359375-9.359375.007813-.984375.167969-1.960937.472656-2.898437l3.929688-11.742188h5.839843c28.636719 10.667969 60.160157 10.667969 88.796876 0h5.839843l3.929688 11.742188c.78125 2.339843.589843 4.894531-.527344 7.089843zm-13.433593-34.289062c-34.4375 13.230469-73.183594 8.65625-103.589844-12.234375s-48.578125-55.417969-48.578125-92.308594v-4.511719c24.160156 8.300781 49.53125 12.53125 75.078125 12.511719h73.84375c25.546875.019531 50.917969-4.210938 75.078125-12.511719v4.511719c-.167969 46.292969-28.648438 87.761719-71.792969 104.542969zm71.832031-176.542969v18.449219c-24.015625 8.964843-49.445312 13.554687-75.078125 13.550781h-73.84375c-25.632813.003906-51.0625-4.585938-75.078125-13.550781v-18.449219c-.019531-39.507812 20.808594-76.09375 54.792969-96.246094.394531.117188.796875.199219 1.207031.246094h49.601562c-6.332031 30.75 5.929688 62.355469 31.34375 80.789062 25.410157 18.433594 59.265626 20.273438 86.527344 4.707032.328125 3.542968.527344 7.054687.527344 10.503906zm-40-16c-35.347656 0-64-28.652344-64-64s28.652344-64 64-64 64 28.652344 64 64c-.039062 35.328125-28.671875 63.960938-64 64zm0-144c-2.671875.003906-5.34375.136719-8 .40625v-16.40625h60.9375l5.140625 41.160156c-15.050781-16.046875-36.074219-25.15625-58.078125-25.160156zm124.648438 317.34375c-2.238282 2.382812-5.652344 3.257812-8.757813 2.242188-3.109375-1.011719-5.347656-3.734376-5.746094-6.976563l-45.082031-360.609375h16.875c12.667969 0 23.15625 9.851562 23.949219 22.496094l21.035156 336.542968c.15625 2.328126-.667969 4.613282-2.273437 6.304688zm0 0"/><path d="m120 320h16v16h-16zm0 0"/><path d="m152 320h16v16h-16zm0 0"/><path d="m184 320h16v16h-16zm0 0"/></svg>