<svg height="512pt" viewBox="-84 0 512 512.03035" width="512pt" xmlns="http://www.w3.org/2000/svg"><path d="m229.53125 450.207031c-3.203125-.003906-6.152344-1.742187-7.707031-4.542969-1.554688-2.800781-1.46875-6.226562.222656-8.945312 9.878906-15.890625 31.242187-43.167969 63.285156-47.527344 16.058594-2.191406 25.035157-5.296875 32.660157-16.824218 4.1875-6.480469 7.179687-13.65625 8.828124-21.1875 1.070313-4.757813 5.792969-7.75 10.550782-6.683594 4.757812 1.066406 7.75 5.792968 6.679687 10.550781-2.132812 9.621094-5.976562 18.785156-11.351562 27.046875-12.359375 18.722656-29.007813 22.421875-45.019531 24.601562-24.894532 3.390626-42.433594 26.113282-50.679688 39.355469-1.605469 2.578125-4.429688 4.148438-7.46875 4.15625zm0 0" fill="#71c285"/><path d="m238.359375 300.136719c-4.875 0-8.828125-3.949219-8.828125-8.828125 0-2.648438.214844-64.296875 18.539062-101.046875 14.601563-30.992188 17.5625-66.199219 8.351563-99.195313-.996094-2.996094-.320313-6.296875 1.777344-8.660156 2.097656-2.359375 5.292969-3.421875 8.386719-2.789062 3.09375.636718 5.609374 2.875 6.609374 5.871093 10.753907 37.425781 7.46875 77.488281-9.234374 112.664063-16.550782 33.007812-16.773438 92.566406-16.773438 93.15625 0 4.878906-3.953125 8.828125-8.828125 8.828125zm0 0" fill="#4c8056"/><path d="m221.808594 401.109375c8.050781-20.261719 19.96875-38.757813 35.089844-54.457031 14.019531-12.492188 31.859374-15.945313 47.058593-26.175782 20.675781-13.914062 28.761719-41.179687 32.769531-64.441406 3.308594-19.21875-.882812-65.5625-18.925781-79.5 0 0 0 52.964844-25.601562 86.960938-12.863281 17.089844-32.601563 17.238281-50.875 25.492187-12.734375 6.074219-23.09375 16.207031-29.445313 28.804688zm0 0" fill="#71c285"/><path d="m70.636719 467.863281s.527343-1.148437 1.410156-3.179687c4.855469-11.917969 18.628906-54.90625-19.066406-85.097656-44.136719-35.308594-44.136719-114.757813-44.136719-114.757813 10.632812 20.6875 25.703125 38.773437 44.136719 52.964844 20.390625 13.59375 40.871093 21.980469 53.140625 41.3125l61.617187 101.03125zm0 0" fill="#4c8056"/><path d="m229.53125 450.207031c.066406-.675781.097656-1.351562.089844-2.03125.085937-1.589843.265625-4.148437.351562-7.503906 1.261719-41.953125-4.679687-83.8125-17.566406-123.761719-5.832031-17.136718-14-33.386718-24.273438-48.285156l-32.929687-49.964844c-35.398437-62.410156-56.230469-132.414062-49.257813-174.523437 0 0-35.308593 158.898437 8.828126 247.171875l55.171874 197.519531zm0 0" fill="#4c8056"/><path d="m35.324219 17.65625c0 9.75-7.902344 17.652344-17.652344 17.652344-9.753906 0-17.65625-7.902344-17.65625-17.652344s7.902344-17.65625 17.65625-17.65625c9.75 0 17.652344 7.90625 17.652344 17.65625zm0 0" fill="#67b9cc"/><path d="m97.117188 353.101562c-4.113282 0-7.679688-2.847656-8.597657-6.855468-4.589843-20.402344-10.707031-40.429688-18.296875-59.914063-5.101562-14.019531-12.308594-27.179687-21.375-39.027343-25.660156-32.238282-50.457031-72.34375-39.828125-125.484376.523438-3.183593 2.742188-5.828124 5.785157-6.894531 3.042968-1.070312 6.429687-.394531 8.828124 1.765625 2.398438 2.15625 3.429688 5.449219 2.6875 8.589844-9.199218 46.019531 13.242188 81.9375 36.335938 110.996094 10.171875 13.210937 18.257812 27.898437 23.984375 43.558594 10.136719 26.90625 18.730469 54.367187 25.742187 82.253906 1.085938 4.75-5.367187.566406-10.117187 1.652344-.664063.175781-4.503906-10.640626-5.148437-10.640626zm0 0" fill="#4c8056"/><g fill="#67b9cc"><path d="m52.980469 61.792969c0 4.875-3.953125 8.828125-8.828125 8.828125s-8.828125-3.953125-8.828125-8.828125 3.953125-8.828125 8.828125-8.828125 8.828125 3.953125 8.828125 8.828125zm0 0"/><path d="m344.292969 105.929688c0 9.753906-7.90625 17.65625-17.65625 17.65625s-17.65625-7.902344-17.65625-17.65625c0-9.75 7.90625-17.652344 17.65625-17.652344s17.65625 7.902344 17.65625 17.652344zm0 0"/><path d="m326.636719 52.964844c0 4.875-3.953125 8.828125-8.828125 8.828125s-8.828125-3.953125-8.828125-8.828125 3.953125-8.828125 8.828125-8.828125 8.828125 3.953125 8.828125 8.828125zm0 0"/></g><path d="m132.976562 454.074219c-16.144531-38.65625-31.328124-84.746094-26.96875-127.25 4.652344-45.390625 36.191407-81.109375 55.84375-120.648438 22.660157-45.515625 33.527344-157.253906 14.714844-206.175781.832032 2.152344 5.675782 5.21875 7.285156 6.957031 24.8125 27.101563 27.882813 63.292969 28.875 98.171875 1.179688 41.59375 1.101563 82.449219-11.222656 122.703125-11.476562 37.402344-27.195312 74.152344-28.589844 113.769531-1.960937 34.019532 5.859376 67.886719 22.527344 97.605469 2.292969 3.824219 21.316406 29.078125 24.160156 32.53125zm0 0" fill="#71c285"/><path d="m208.609375 459.210938c-15.792969-6.308594-32.695313-9.371094-49.699219-9.003907-19.742187-.699219-39.339844 3.644531-56.9375 12.625l6.445313 39.8125c16.011719 6.550781 33.199219 9.734375 50.492187 9.355469 17.519532.367188 34.925782-2.910156 51.113282-9.621094zm0 0" fill="#a5a5a4"/><path d="m114.773438 485.515625c0 14.628906-11.855469 26.484375-26.480469 26.484375-14.628907 0-26.484375-11.855469-26.484375-26.484375 0-14.625 11.855468-26.480469 26.484375-26.480469 14.625 0 26.480469 11.855469 26.480469 26.480469zm0 0" fill="#d1d4d1"/><path d="m264.84375 480c0 17.671875-14.328125 32-32 32-17.675781 0-32-14.328125-32-32s14.324219-32 32-32c17.671875 0 32 14.328125 32 32zm0 0" fill="#d1d4d1"/></svg>